<svg width="25" height="20" viewBox="0 0 25 20" fill="none" xmlns="http://www.w3.org/2000/svg">
<path d="M22.2222 10.2044V1.11111C22.2222 0.816426 22.1052 0.533811 21.8968 0.325437C21.6884 0.117063 21.4058 0 21.1111 0C20.8164 0 20.5338 0.117063 20.3254 0.325437C20.1171 0.533811 20 0.816426 20 1.11111V2.22222H4.44444V1.11111C4.44444 0.816426 4.32738 0.533811 4.11901 0.325437C3.91063 0.117063 3.62802 0 3.33333 0C3.03865 0 2.75603 0.117063 2.54766 0.325437C2.33929 0.533811 2.22222 0.816426 2.22222 1.11111V10.2044C1.57455 10.4334 1.01343 10.8569 0.615653 11.417C0.217871 11.9771 0.00284774 12.6464 0 13.3333V18.8889C0 19.1836 0.117063 19.4662 0.325437 19.6746C0.533811 19.8829 0.816426 20 1.11111 20C1.4058 20 1.68841 19.8829 1.89679 19.6746C2.10516 19.4662 2.22222 19.1836 2.22222 18.8889V17.7778H22.2222V18.8889C22.2222 19.1836 22.3393 19.4662 22.5477 19.6746C22.756 19.8829 23.0386 20 23.3333 20C23.628 20 23.9106 19.8829 24.119 19.6746C24.3274 19.4662 24.4444 19.1836 24.4444 18.8889V13.3333C24.4416 12.6464 24.2266 11.9771 23.8288 11.417C23.431 10.8569 22.8699 10.4334 22.2222 10.2044ZM20 10H18.8889V7.77778C18.8889 7.48309 18.7718 7.20048 18.5635 6.9921C18.3551 6.78373 18.0725 6.66667 17.7778 6.66667H6.66667C6.37198 6.66667 6.08937 6.78373 5.88099 6.9921C5.67262 7.20048 5.55556 7.48309 5.55556 7.77778V10H4.44444V4.44444H20V10ZM7.77778 10V8.88889H11.1111V10H7.77778ZM13.3333 8.88889H16.6667V10H13.3333V8.88889ZM2.22222 13.3333C2.22222 13.0386 2.33929 12.756 2.54766 12.5477C2.75603 12.3393 3.03865 12.2222 3.33333 12.2222H21.1111C21.4058 12.2222 21.6884 12.3393 21.8968 12.5477C22.1052 12.756 22.2222 13.0386 22.2222 13.3333V15.5556H2.22222V13.3333Z" fill="#10405B"/>
</svg>
