<svg width="21" height="20" viewBox="0 0 21 20" fill="none" xmlns="http://www.w3.org/2000/svg">
<path d="M20.1576 18.2653H18.0917V10.8163C18.6332 11 19.2149 10.9592 19.6963 10.6735C20.3582 10.3061 20.7794 9.59184 20.7794 8.83673C20.7794 8.12245 20.4384 7.46939 19.8567 7.08163L10.9713 1.04082L10.9513 1.02041C10.6705 0.857143 10.3295 0.857143 10.0688 1.02041L7.32092 2.89796V2.2449C7.32092 1.02041 6.33811 0 5.11461 0C3.89112 0 2.90831 1 2.90831 2.2449V5.87755L1.14327 7.08163C0.561605 7.46939 0.22063 8.12245 0.22063 8.83673C0.22063 9.61224 0.641834 10.3061 1.30373 10.6735C1.80516 10.9388 2.40688 11 2.90831 10.8367V18.2653H0.842407C0.381089 18.2653 0 18.6531 0 19.1224C0 19.6122 0.381089 20 0.842407 20H20.1576C20.6189 20 21 19.6122 21 19.1429C21 18.6735 20.6189 18.2653 20.1576 18.2653ZM4.61318 4.71429V2.2449C4.61318 1.95918 4.83381 1.73469 5.11461 1.73469C5.39542 1.73469 5.61605 1.95918 5.61605 2.2449V4.06122L4.61318 4.71429ZM4.61318 9.79592L10.49 5.79592L16.3868 9.79592V18.2857H4.61318V9.79592ZM18.894 9.16327C18.7736 9.22449 18.6332 9.20408 18.533 9.14286L10.9713 4.02041L10.9513 4C10.8109 3.91837 10.6504 3.87755 10.51 3.87755C10.3496 3.87755 10.2092 3.91837 10.0688 4L2.48711 9.14286C2.36676 9.22449 2.22636 9.2449 2.10602 9.16327C1.98567 9.10204 1.90544 8.97959 1.90544 8.83673C1.90544 8.73469 1.96562 8.59184 2.0659 8.53061L10.49 2.81633L18.9341 8.55102C19.0745 8.63265 19.0745 8.79592 19.0745 8.83673C19.0745 8.97959 19.0143 9.10204 18.894 9.16327Z" fill="#10405B"/>
</svg>
