<svg width="74" height="88" viewBox="0 0 74 88" fill="none" xmlns="http://www.w3.org/2000/svg">
<path d="M17.8278 56.0017C17.7694 54.9956 18.4694 54.6894 19.3589 54.4415C21.6921 53.7707 24.0108 53.0708 26.3294 52.3126C26.7231 52.1813 27.2043 51.8022 27.3064 51.4523C27.7439 49.9358 28.0793 48.3901 28.4001 46.8299C28.4438 46.6111 28.2543 46.2612 28.0647 46.0862C25.2503 43.6948 23.6754 40.5743 22.8004 37.0601C22.6546 36.4769 22.465 36.1269 21.8671 35.9082C20.6276 35.4562 19.7381 34.5667 19.2569 33.3272C18.6298 31.7087 18.5277 30.0172 19.111 28.3986C19.4464 27.48 20.1318 26.6926 20.7734 25.6864C19.6798 23.82 18.7756 21.589 18.3236 19.183C17.8278 16.4562 17.8132 13.7586 18.9361 11.1339C20.6568 7.08023 23.792 5.02421 28.0647 4.51386C28.7792 4.42637 29.3334 4.22222 29.8729 3.69728C32.6873 0.955926 36.1871 0.16852 39.9348 0.591389C43.2888 0.970512 46.4095 2.15162 49.151 4.16389C53.7445 7.53226 55.2464 12.213 54.7652 17.6957C54.5173 20.437 53.7445 23.0472 52.7237 25.5698C55.2902 27.3633 56.0631 29.5506 55.2464 32.5981C54.809 34.2167 53.8465 35.3978 52.257 35.9519C51.7321 36.1415 51.5862 36.4623 51.4842 36.8997C50.6384 40.5014 49.0051 43.6365 46.1761 46.1008C45.972 46.2757 45.797 46.684 45.8407 46.9319C46.1616 48.4776 46.5261 50.0232 46.9636 51.5397C47.0511 51.846 47.5177 52.1522 47.8677 52.2688C50.1717 53.0125 52.5049 53.7124 54.8381 54.3832C55.7131 54.631 56.4422 54.9518 56.3985 56.0601C59.0525 56.0455 61.5607 56.4975 63.8793 57.6495C69.7852 60.5804 73.1246 65.334 73.4308 71.9249C73.6496 76.7223 73.5037 81.5342 73.4891 86.3462C73.4891 87.4836 73.0808 87.8335 71.8413 87.8335C61.3857 87.8335 50.9155 87.8335 40.4598 87.8335C27.9189 87.8335 15.3925 87.8335 2.85156 87.8335C1.10166 87.8335 0.868345 87.6002 0.868345 85.865C0.882927 81.1405 0.780849 76.4306 0.941256 71.7062C1.18916 64.3279 6.84716 57.8536 14.1092 56.4392C15.305 56.2642 16.5299 56.1767 17.8278 56.0017ZM29.0126 14.0648C27.5543 15.1439 26.5627 16.4854 25.819 18.0165C24.5357 20.6558 24.2003 23.4554 24.4482 26.3426C24.5357 27.3196 24.142 27.8883 23.2525 27.9758C21.9546 28.1216 21.4442 28.6028 21.3276 29.9005C21.2838 30.4401 21.2984 30.9796 21.3713 31.5191C21.5463 32.8606 22.1734 33.5605 23.5441 33.7793C24.5066 33.9397 24.8565 34.4792 25.0753 35.3832C25.4107 36.8706 25.7607 38.3725 26.3731 39.7577C30.1937 48.3901 41.466 48.7838 46.3657 42.3387C47.926 40.2827 48.8447 37.9642 49.2093 35.427C49.3551 34.3771 49.8363 33.9251 50.8425 33.7501C52.0383 33.5605 52.7383 32.8023 52.8695 31.6503C52.9424 30.9942 52.9424 30.3234 52.8841 29.6672C52.7674 28.4715 52.1841 28.0049 50.9738 28.0195C49.9968 28.0341 49.5593 27.5675 49.4718 26.5322C49.2968 24.2866 48.7281 22.1431 47.2698 20.3641C46.0741 18.8914 44.5575 18.1477 42.5451 18.3081C41.0285 18.4248 39.4828 18.3227 37.9808 18.104C34.6268 17.6228 31.6666 16.2229 29.0126 14.0648ZM43.6825 85.2817C52.8549 85.2817 61.8815 85.2817 70.9518 85.2817C70.9518 80.9801 71.0539 76.7369 70.9226 72.5082C70.7476 66.4568 67.7145 62.2281 62.246 59.7201C62.0419 59.6326 61.8232 59.6034 61.6336 59.5451C62.0419 60.7991 62.4939 61.9802 62.8002 63.2051C63.1064 64.4299 63.3397 65.6694 63.4418 66.9234C63.5001 67.6962 63.7189 68.0899 64.4772 68.4253C66.5041 69.3002 67.6416 71.6187 67.2187 73.6893C66.752 75.964 64.9001 77.6555 62.771 77.7576C60.3795 77.8888 58.2942 76.5036 57.6234 74.3455C56.9526 72.1728 57.7692 69.6502 59.7816 68.6732C60.9336 68.1045 61.1815 67.4921 60.8461 66.3985C60.817 66.311 60.8315 66.2235 60.817 66.136C60.4524 63.7446 59.8837 61.4407 58.4838 59.3993C58.1192 58.8743 57.6963 58.7139 57.0838 58.6264C55.6402 58.4369 54.6632 58.8452 54.284 60.3325C54.2111 60.6095 54.0215 60.872 53.8903 61.1345C52.7966 63.3363 52.7966 63.3363 54.4298 65.1736C55.261 66.0922 55.2902 66.4859 54.6194 67.565C52.8549 70.423 51.0759 73.281 49.3114 76.139C47.4594 79.1574 45.6074 82.1612 43.6825 85.2817ZM3.4057 85.2817C12.5052 85.2817 21.4734 85.2817 30.5291 85.2817C29.9896 84.3922 29.5084 83.6048 29.0126 82.8174C25.8919 77.7576 22.7567 72.7123 19.636 67.6525C18.8631 66.413 18.8923 66.1506 19.8839 65.0569C20.2193 64.6778 20.5401 64.2695 20.9193 63.9196C21.3276 63.5259 21.3859 63.1759 21.1088 62.6655C20.613 61.7761 20.0881 60.8866 19.7527 59.9242C19.3735 58.816 18.6881 58.6264 17.5945 58.5973C15.9466 58.5535 14.8675 59.2243 14.0509 60.5658C13.176 61.9948 12.651 63.5405 12.4468 65.2028C12.3593 65.9902 12.3156 66.7776 12.2573 67.565C12.5198 67.5942 12.6072 67.6087 12.6947 67.6087C17.332 67.3171 21.1963 71.9103 20.438 76.6785C20.3068 77.4805 19.8256 77.8597 19.111 77.8597C17.4778 77.8742 16.5445 77.3493 16.5445 76.4744C16.5445 76.1682 16.6758 75.8036 16.8799 75.5849C17.1424 75.3224 17.5361 75.1912 17.8861 75.0016C17.9736 73.1935 16.5737 71.1812 14.7071 70.4376C12.9281 69.7231 10.9303 70.2334 9.647 71.7353C8.26166 73.3539 8.04293 75.7016 9.13661 77.5389C9.29702 77.4951 9.45743 77.4368 9.63242 77.4076C10.4928 77.2326 11.0761 77.5389 11.2657 78.2679C11.4698 79.0553 11.0761 79.5365 10.3907 79.8136C9.9824 79.9886 9.54492 80.1052 9.13661 80.2948C8.43665 80.6156 7.88252 80.3823 7.48879 79.8136C4.87853 76.0224 5.59307 71.3416 9.19495 68.819C9.647 68.4982 9.82199 68.192 9.80741 67.6525C9.7345 65.1882 10.172 62.8114 11.2073 60.5658C11.2511 60.4783 11.2073 60.3616 11.2073 60.1721C10.9157 60.3033 10.6969 60.3908 10.4928 60.522C6.07429 63.2342 3.60985 67.1421 3.44944 72.3478C3.34736 75.4974 3.42028 78.6616 3.42028 81.8113C3.4057 82.9632 3.4057 84.1006 3.4057 85.2817ZM51.2654 22.1139C51.98 19.9121 52.4174 17.579 52.3154 15.1731C52.155 11.1485 50.4488 7.96971 47.0073 5.78246C44.7762 4.36804 42.3118 3.42023 39.7015 3.14318C36.435 2.77864 33.4019 3.44939 31.127 6.08867C30.5875 6.71568 30.0333 6.99274 29.2021 6.99274C24.944 7.0219 21.8525 9.44246 20.8026 13.5107C20.336 15.3335 20.511 17.1562 20.8755 18.9497C21.1088 20.0579 21.4588 21.1515 21.7505 22.2452C21.8234 22.2306 21.9109 22.2014 21.9838 22.1868C21.9984 22.0702 22.013 21.9535 22.0275 21.8369C22.64 17.7103 24.4336 14.2544 27.8605 11.7609C28.9834 10.9444 29.3188 11.0027 30.3833 11.8922C33.8102 14.7502 37.7766 16.1354 42.2097 15.8001C45.0095 15.5959 47.2407 16.5146 48.976 18.5852C49.8947 19.6642 50.5217 20.9328 51.2654 22.1139ZM33.9414 85.3109C36.0996 85.3109 38.1412 85.3109 40.2702 85.3109C41.3202 78.3408 42.3701 71.4 43.42 64.4883C39.162 64.4883 35.0351 64.4883 30.7916 64.4883C31.8416 71.4145 32.8915 78.3408 33.9414 85.3109ZM30.3833 61.7177C34.8893 62.2135 39.3515 62.2281 43.8284 61.7177C44.2075 59.2389 44.6158 56.8766 44.9075 54.4998C44.9804 53.902 44.7762 53.2458 44.6158 52.6334C44.3387 51.5981 43.9742 50.5773 43.6825 49.542C43.5367 49.0317 43.4492 48.5068 43.3326 47.9381C39.1474 49.7462 35.0497 49.7024 30.8937 47.9235C30.8062 48.3318 30.7624 48.6526 30.675 48.9588C30.3104 50.2274 29.9021 51.4668 29.5667 52.75C29.4063 53.3625 29.2459 54.0332 29.3188 54.6456C29.6104 56.9495 30.0042 59.2534 30.3833 61.7177ZM43.6242 80.149C43.6971 80.1636 43.7554 80.1927 43.8284 80.2073C43.9888 79.9594 44.1492 79.7261 44.3096 79.4782C46.6428 75.7016 48.9906 71.9249 51.3238 68.1483C52.3154 66.5589 52.3154 66.5589 51.0759 65.2028C49.778 63.7738 49.778 63.7738 50.6238 62.0677C51.5133 60.2742 52.4029 58.4952 53.3361 56.6287C51.3238 56.0163 49.4426 55.4476 47.4594 54.8498C46.1616 63.3217 44.8929 71.7354 43.6242 80.149ZM20.9047 56.6142C21.8088 58.4369 22.6546 60.1429 23.5004 61.8636C24.4336 63.7592 24.4336 63.7592 23.0775 65.2903C22.8733 65.509 22.6983 65.7714 22.4796 65.961C22.013 66.3693 21.9984 66.7047 22.3484 67.2588C24.944 71.4 27.5105 75.5703 30.0771 79.7261C30.2083 79.9448 30.3687 80.149 30.675 80.5864C29.3479 71.852 28.0647 63.3801 26.7814 54.8644C24.769 55.4476 22.9171 56.0163 20.9047 56.6142ZM62.319 75.2349C63.6314 75.2495 64.7542 74.1851 64.7834 72.8727C64.8126 71.5312 63.7043 70.423 62.3335 70.423C61.0211 70.423 59.9274 71.502 59.9129 72.8144C59.9129 74.1267 61.0065 75.2204 62.319 75.2349Z" fill="#0E1841"/>
</svg>
