<svg width="20" height="16" viewBox="0 0 20 16" fill="none" xmlns="http://www.w3.org/2000/svg">
<path d="M10.0016 15.5535C10.5955 14.9596 10.5955 13.9927 10.0043 13.4014L6.20564 9.52357L18.4762 9.52357C19.3165 9.52357 20 8.84011 20 7.99972C20 7.15934 19.3165 6.47588 18.4762 6.47588L6.20488 6.47588L10.002 2.6007C10.5963 2.00639 10.5963 1.03988 10.002 0.445578C9.40767 -0.148728 8.44076 -0.148326 7.84686 0.445578C7.8461 0.446337 7.8457 0.447096 7.84494 0.447498L1.30453 7.07099C1.05193 7.32662 0.925859 7.6615 0.925859 7.99633C0.925859 8.33308 1.0535 8.66948 1.30837 8.92435L7.84646 15.5535C8.1341 15.8415 8.51697 16 8.92381 16C9.33066 16 9.71353 15.8415 10.0016 15.5535Z" fill="#10405B"/>
</svg>
