<svg width="10" height="14" viewBox="0 0 10 14" fill="none" xmlns="http://www.w3.org/2000/svg">
<g clip-path="url(#clip0_22_449)">
<path d="M5.00778 0C2.2395 0 0 2.22395 0 4.97667C0 6.06532 0.357698 7.12286 1.01089 7.99378L4.63452 12.8149C4.79005 13.0171 5.08554 13.0638 5.28771 12.9082C5.31882 12.8771 5.34992 12.846 5.38103 12.8149L9.00466 7.99378C10.6687 5.78538 10.2177 2.65941 8.02488 1.01089C7.13841 0.357698 6.08087 0 5.00778 0ZM5.00778 7.68274C3.53033 7.68274 2.33281 6.48523 2.33281 5.00778C2.33281 3.53033 3.53033 2.33282 5.00778 2.33282C6.48522 2.33282 7.66718 3.51477 7.68274 4.99222C7.68274 6.46967 6.48522 7.66719 5.00778 7.66719V7.68274Z" fill="#10405B" fill-opacity="0.1"/>
</g>
<defs>
<clipPath id="clip0_22_449">
<rect width="10" height="13.0016" fill="white"/>
</clipPath>
</defs>
</svg>
