<svg width="22" height="22" viewBox="0 0 22 22" fill="none" xmlns="http://www.w3.org/2000/svg">
<path d="M22 5.4332C22 5.21196 21.9487 4.99376 21.8502 4.79587C21.7516 4.59799 21.6085 4.42586 21.4323 4.29312L16.1097 0.28502C15.864 0.10001 15.5652 0 15.2581 0C14.951 0 14.6521 0.10001 14.4065 0.28502L9.08387 4.29312C8.9076 4.42586 8.76452 4.59799 8.66598 4.79587C8.56744 4.99376 8.51613 5.21196 8.51613 5.4332V8.95676L6.11033 7.3464C5.87709 7.19015 5.60298 7.10677 5.32259 7.10677C5.0422 7.10677 4.76809 7.19015 4.53484 7.3464L0.63162 9.95789C0.436687 10.0885 0.276987 10.2655 0.166776 10.4731C0.056564 10.6808 -0.000730276 10.9126 7.027e-06 11.1479V22H22V5.4332ZM8.51613 19.8623H2.12904V11.5291L5.32259 9.39142L8.51613 11.5291V19.8623ZM19.871 19.8623H10.6452V5.78947L15.2581 2.31579L19.871 5.78947V19.8623Z" fill="#10405B"/>
<path d="M15.8784 8.23077H13.5464V10.5628H15.8784V8.23077Z" fill="#10405B"/>
<path d="M15.8784 14.4494H13.5464V16.7814H15.8784V14.4494Z" fill="#10405B"/>
</svg>
