<?xml version="1.0" encoding="UTF-8" standalone="no"?>
<!-- Created with Inkscape (http://www.inkscape.org/) -->

<svg
   version="1.1"
   id="svg2"
   width="1056"
   height="816"
   viewBox="0 0 1056 816"
   sodipodi:docname="Lymbika-05.eps"
   xmlns:inkscape="http://www.inkscape.org/namespaces/inkscape"
   xmlns:sodipodi="http://sodipodi.sourceforge.net/DTD/sodipodi-0.dtd"
   xmlns="http://www.w3.org/2000/svg"
   xmlns:svg="http://www.w3.org/2000/svg">
  <defs
     id="defs6">
    <clipPath
       clipPathUnits="userSpaceOnUse"
       id="clipPath20">
      <path
         d="m 4002.31,3598.27 c -0.95,-7.19 -2.63,-13.91 -4.79,-20.4 -2.17,-6.5 -5.05,-12.72 -8.38,-18.48 -3.39,-5.77 -7.47,-11.04 -12.03,-15.84 -4.58,-4.81 -9.6,-9.14 -15.12,-12.96 -2.41,-1.68 -4.8,-3.13 -7.44,-4.56 -2.4,-1.45 -5.04,-2.67 -7.69,-3.61 -2.64,-1.22 -5.25,-2.16 -7.91,-3.14 -2.89,-0.69 -5.53,-1.42 -8.41,-2.14 -3.82,-0.72 -7.68,-1.44 -11.52,-1.68 -2.71,-0.17 -5.54,-0.33 -8.42,-0.33 -1.18,0 -2.38,0.02 -3.58,0.1 -4.09,0.23 -7.92,0.47 -12.01,1.19 -4.32,0.72 -8.39,1.44 -12.48,2.64 -7.2,2.14 -14.16,4.8 -20.86,8.14 -6.74,3.62 -13.22,7.7 -19.22,12.26 -6.24,4.81 -11.77,10.09 -17.05,15.85 -5.28,5.76 -10.08,12.24 -14.4,18.96 -4.32,6.94 -7.89,13.91 -10.8,21.37 -2.88,7.17 -5.28,14.63 -6.72,22.08 -1.68,7.66 -2.4,15.12 -2.65,22.56 0,7.69 0.49,15.1 1.95,22.33 0.22,1.43 0.46,2.64 0.7,4.08 0.47,1.44 0.72,2.64 0.96,3.84 0.48,1.44 0.72,2.65 1.19,3.82 0.25,1.46 0.73,2.66 1.21,3.86 v 0.24 c 2.88,8.62 6.96,16.33 11.76,23.52 4.8,6.95 10.56,13.21 16.8,18.25 6.48,5.28 13.45,9.61 20.88,12.96 7.45,3.12 15.39,5.52 23.53,6.72 3.84,0.48 7.44,0.73 11.31,0.96 3.82,0 7.65,0 11.5,-0.48 3.83,-0.23 7.92,-0.98 11.76,-1.68 4.08,-0.95 7.92,-1.94 12,-3.38 13.92,-4.57 26.89,-11.73 37.93,-21.1 11.28,-9.12 21.12,-20.17 28.8,-32.4 7.68,-12.25 13.44,-25.93 16.8,-40.1 3.36,-14.16 4.35,-28.8 2.4,-43.45 z m 406.21,-716.93 c -3.82,14.82 -7.63,29.66 -10.82,44.6 -0.49,-0.25 -0.97,-0.53 -1.47,-0.77 -15.13,16.1 -26.88,33.86 -35.51,52.59 -8.66,18.46 -14.18,37.91 -17.3,57.35 -2.88,19.44 -3.36,38.41 -1.44,56.67 1.68,18.01 5.52,35.05 11.04,50.17 2.17,5.52 4.8,12.24 8.41,19.2 3.59,6.97 7.92,14.41 13.2,21.37 5.54,6.96 11.76,13.68 18.93,19.44 7.47,5.74 15.63,10.8 25.23,14.14 6,2.16 12.49,3.63 19.44,4.32 6.97,0.99 14.41,0.99 22.34,0.25 8.18,-0.71 16.55,-2.41 25.7,-5.02 8.86,-2.89 18.46,-6.49 28.54,-11.28 l 112.34,-53.08 14.65,140.43 v 0.48 l 1.68,14.88 -0.25,0.24 c 6.49,77.8 0.51,155.31 -15.59,229.51 -15.85,72.49 -41.54,142.82 -75.38,208.11 -33.36,64.57 -75.38,125.07 -124.56,178.36 -49.45,53.77 -106.84,100.81 -171.42,138 -24,13.7 -48.49,25.95 -72.97,36.25 -24.96,10.59 -50.41,19.22 -75.86,26.16 -25.68,6.98 -51.6,12.27 -77.77,15.38 -26.41,3.37 -52.81,4.81 -79.43,3.82 -9.15,-0.21 -18.27,-0.69 -27.39,-1.43 -9.36,-0.73 -18.48,-1.66 -27.61,-2.89 -9.36,-1.41 -18.48,-2.86 -27.6,-4.54 -9.36,-1.94 -18.49,-3.85 -27.85,-6.26 -36,-9.1 -70.57,-22.3 -103.21,-38.88 -33.61,-17.27 -65.03,-38.41 -94.34,-63.12 -30.01,-25.44 -57.37,-54.97 -81.62,-88.11 -24.96,-33.85 -46.81,-71.75 -64.81,-113.04 l -1.44,-3.39 c -0.24,-0.21 -0.24,-0.69 -0.48,-0.94 -0.24,-0.47 -0.24,-0.71 -0.48,-0.97 -0.24,-0.49 -0.24,-0.71 -0.48,-1.18 -0.24,-0.24 -0.24,-0.75 -0.48,-0.96 h 0.24 c -1.92,-4.35 -3.84,-8.91 -5.52,-13.45 -1.66,-4.56 -3.36,-9.12 -5.04,-13.91 -1.44,-4.57 -3.1,-9.39 -4.56,-14.19 -1.44,-4.78 -2.64,-9.82 -4.08,-14.62 -7.21,-28.81 -11.5,-58.35 -12.72,-88.34 -0.97,-30.51 0.95,-61 6,-91.69 5.28,-30.74 13.44,-61.21 24.96,-91.22 11.52,-30.25 25.93,-59.55 43.45,-87.64 17.52,-28.09 37.45,-54.23 59.53,-77.77 21.84,-23.53 45.61,-44.39 71.05,-62.66 25.21,-18.22 52.09,-33.58 79.67,-46.06 27.66,-12.25 56.2,-21.61 85.24,-27.63 16.57,-3.59 33.13,-5.98 49.45,-7.18 16.32,-1.46 32.41,-1.68 48.01,-0.96 15.84,0.72 31.21,2.38 46.33,5.04 14.89,2.64 29.52,6.24 43.93,10.8 6,1.92 12,4.09 18.01,6.48 5.99,2.17 11.75,4.56 17.52,7.21 5.76,2.61 11.27,5.28 17.04,8.16 5.52,3.1 11.04,6 16.32,9.36 -7.44,-28.33 -12.96,-57.64 -16.32,-87.38 -3.36,-30.01 -4.3,-60.75 -3.36,-91.48 1.2,-30.94 4.31,-61.91 9.84,-92.63 5.52,-30.97 13.44,-61.45 23.28,-91.48 -0.69,0.02 -1.41,0.11 -2.12,0.13 16.95,-28 33.97,-55.9 53.45,-82.1 -61.9,-13.5 -126.12,-20.8 -192.06,-20.8 -497.63,0 -901.04,404.95 -901.04,904.49 0,499.54 403.41,904.49 901.04,904.49 497.63,0 901.03,-404.95 901.03,-904.49 0,-335.56 -182.16,-628.22 -452.51,-784.34 z m -148.39,713.31 c -2.17,24.99 -6.49,49.69 -12.97,74.2 -6.24,24.25 -14.4,48.25 -24.72,71.78 -10.09,23.28 -22.09,46.06 -36.01,68.17 -2.89,4.79 -6,9.6 -9.36,14.39 -3.12,4.81 -6.48,9.37 -9.84,13.93 -3.36,4.56 -6.72,9.12 -10.33,13.68 -3.36,4.33 -6.96,8.89 -10.56,13.21 4.83,-1.44 9.84,-3.12 14.65,-5.04 4.8,-1.68 9.6,-3.61 14.63,-5.55 4.81,-1.9 9.61,-4.08 14.41,-6.49 4.8,-2.15 9.6,-4.53 14.4,-6.93 30.49,-16.1 58.58,-36.48 83.54,-59.79 24.96,-23.28 47.28,-49.67 66.28,-78.24 18.93,-28.56 34.77,-59.55 47.02,-91.93 12.48,-32.41 21.12,-66.49 25.93,-101.06 -8.65,0.96 -17.02,1.69 -25.42,1.9 -8.43,0.26 -16.83,0 -24.99,-0.49 -8.4,-0.45 -16.57,-1.17 -24.73,-2.63 -8.16,-1.18 -16.32,-2.62 -24.25,-4.78 -6.47,-1.45 -12.71,-3.36 -18.95,-5.28 -6.01,-2.16 -12.28,-4.35 -18.25,-6.99 -6.25,-2.4 -12.24,-5.02 -18.25,-8.13 -5.99,-2.88 -11.75,-6.24 -17.76,-9.61 0.72,3.6 1.44,7.42 2.17,11.26 0.48,3.87 1.19,7.47 1.68,11.31 0.48,3.82 0.95,7.68 1.43,11.52 0.25,3.82 0.73,7.66 0.96,11.74 1.92,25.22 1.68,50.67 -0.71,75.85 z M 3960,4817.2 c -633.54,0 -1147.12,-515.56 -1147.12,-1151.52 0,-635.96 513.58,-1151.52 1147.12,-1151.52 633.53,0 1147.12,515.56 1147.12,1151.52 0,635.96 -513.59,1151.52 -1147.12,1151.52 z"
         id="path18" />
    </clipPath>
    <radialGradient
       fx="0"
       fy="0"
       cx="0"
       cy="0"
       r="1"
       gradientUnits="userSpaceOnUse"
       gradientTransform="matrix(1149.32,0,0,-1149.32,3960,3665.68)"
       spreadMethod="pad"
       id="radialGradient28">
      <stop
         style="stop-opacity:1;stop-color:#d9ff39"
         offset="0"
         id="stop22" />
      <stop
         style="stop-opacity:1;stop-color:#d9ff39"
         offset="0.16870334"
         id="stop24" />
      <stop
         style="stop-opacity:1;stop-color:#006aff"
         offset="1"
         id="stop26" />
    </radialGradient>
  </defs>
  <sodipodi:namedview
     id="namedview4"
     pagecolor="#ffffff"
     bordercolor="#000000"
     borderopacity="0.25"
     inkscape:showpageshadow="2"
     inkscape:pageopacity="0.0"
     inkscape:pagecheckerboard="0"
     inkscape:deskcolor="#d1d1d1" />
  <g
     id="g8"
     inkscape:groupmode="layer"
     inkscape:label="ink_ext_XXXXXX"
     transform="matrix(1.3333333,0,0,-1.3333333,0,816)">
    <g
       id="g10"
       transform="scale(0.1)">
      <path
         d="M 7920,-58.2188 H 0 V 6178.22 H 7920 V -58.2188"
         style="fill:#0e1840;fill-opacity:1;fill-rule:nonzero;stroke:none"
         id="path12" />
      <g
         id="g14">
        <g
           id="g16"
           clip-path="url(#clipPath20)">
          <path
             d="m 4002.31,3598.27 c -0.95,-7.19 -2.63,-13.91 -4.79,-20.4 -2.17,-6.5 -5.05,-12.72 -8.38,-18.48 -3.39,-5.77 -7.47,-11.04 -12.03,-15.84 -4.58,-4.81 -9.6,-9.14 -15.12,-12.96 -2.41,-1.68 -4.8,-3.13 -7.44,-4.56 -2.4,-1.45 -5.04,-2.67 -7.69,-3.61 -2.64,-1.22 -5.25,-2.16 -7.91,-3.14 -2.89,-0.69 -5.53,-1.42 -8.41,-2.14 -3.82,-0.72 -7.68,-1.44 -11.52,-1.68 -2.71,-0.17 -5.54,-0.33 -8.42,-0.33 -1.18,0 -2.38,0.02 -3.58,0.1 -4.09,0.23 -7.92,0.47 -12.01,1.19 -4.32,0.72 -8.39,1.44 -12.48,2.64 -7.2,2.14 -14.16,4.8 -20.86,8.14 -6.74,3.62 -13.22,7.7 -19.22,12.26 -6.24,4.81 -11.77,10.09 -17.05,15.85 -5.28,5.76 -10.08,12.24 -14.4,18.96 -4.32,6.94 -7.89,13.91 -10.8,21.37 -2.88,7.17 -5.28,14.63 -6.72,22.08 -1.68,7.66 -2.4,15.12 -2.65,22.56 0,7.69 0.49,15.1 1.95,22.33 0.22,1.43 0.46,2.64 0.7,4.08 0.47,1.44 0.72,2.64 0.96,3.84 0.48,1.44 0.72,2.65 1.19,3.82 0.25,1.46 0.73,2.66 1.21,3.86 v 0.24 c 2.88,8.62 6.96,16.33 11.76,23.52 4.8,6.95 10.56,13.21 16.8,18.25 6.48,5.28 13.45,9.61 20.88,12.96 7.45,3.12 15.39,5.52 23.53,6.72 3.84,0.48 7.44,0.73 11.31,0.96 3.82,0 7.65,0 11.5,-0.48 3.83,-0.23 7.92,-0.98 11.76,-1.68 4.08,-0.95 7.92,-1.94 12,-3.38 13.92,-4.57 26.89,-11.73 37.93,-21.1 11.28,-9.12 21.12,-20.17 28.8,-32.4 7.68,-12.25 13.44,-25.93 16.8,-40.1 3.36,-14.16 4.35,-28.8 2.4,-43.45 z m 406.21,-716.93 c -3.82,14.82 -7.63,29.66 -10.82,44.6 -0.49,-0.25 -0.97,-0.53 -1.47,-0.77 -15.13,16.1 -26.88,33.86 -35.51,52.59 -8.66,18.46 -14.18,37.91 -17.3,57.35 -2.88,19.44 -3.36,38.41 -1.44,56.67 1.68,18.01 5.52,35.05 11.04,50.17 2.17,5.52 4.8,12.24 8.41,19.2 3.59,6.97 7.92,14.41 13.2,21.37 5.54,6.96 11.76,13.68 18.93,19.44 7.47,5.74 15.63,10.8 25.23,14.14 6,2.16 12.49,3.63 19.44,4.32 6.97,0.99 14.41,0.99 22.34,0.25 8.18,-0.71 16.55,-2.41 25.7,-5.02 8.86,-2.89 18.46,-6.49 28.54,-11.28 l 112.34,-53.08 14.65,140.43 v 0.48 l 1.68,14.88 -0.25,0.24 c 6.49,77.8 0.51,155.31 -15.59,229.51 -15.85,72.49 -41.54,142.82 -75.38,208.11 -33.36,64.57 -75.38,125.07 -124.56,178.36 -49.45,53.77 -106.84,100.81 -171.42,138 -24,13.7 -48.49,25.95 -72.97,36.25 -24.96,10.59 -50.41,19.22 -75.86,26.16 -25.68,6.98 -51.6,12.27 -77.77,15.38 -26.41,3.37 -52.81,4.81 -79.43,3.82 -9.15,-0.21 -18.27,-0.69 -27.39,-1.43 -9.36,-0.73 -18.48,-1.66 -27.61,-2.89 -9.36,-1.41 -18.48,-2.86 -27.6,-4.54 -9.36,-1.94 -18.49,-3.85 -27.85,-6.26 -36,-9.1 -70.57,-22.3 -103.21,-38.88 -33.61,-17.27 -65.03,-38.41 -94.34,-63.12 -30.01,-25.44 -57.37,-54.97 -81.62,-88.11 -24.96,-33.85 -46.81,-71.75 -64.81,-113.04 l -1.44,-3.39 c -0.24,-0.21 -0.24,-0.69 -0.48,-0.94 -0.24,-0.47 -0.24,-0.71 -0.48,-0.97 -0.24,-0.49 -0.24,-0.71 -0.48,-1.18 -0.24,-0.24 -0.24,-0.75 -0.48,-0.96 h 0.24 c -1.92,-4.35 -3.84,-8.91 -5.52,-13.45 -1.66,-4.56 -3.36,-9.12 -5.04,-13.91 -1.44,-4.57 -3.1,-9.39 -4.56,-14.19 -1.44,-4.78 -2.64,-9.82 -4.08,-14.62 -7.21,-28.81 -11.5,-58.35 -12.72,-88.34 -0.97,-30.51 0.95,-61 6,-91.69 5.28,-30.74 13.44,-61.21 24.96,-91.22 11.52,-30.25 25.93,-59.55 43.45,-87.64 17.52,-28.09 37.45,-54.23 59.53,-77.77 21.84,-23.53 45.61,-44.39 71.05,-62.66 25.21,-18.22 52.09,-33.58 79.67,-46.06 27.66,-12.25 56.2,-21.61 85.24,-27.63 16.57,-3.59 33.13,-5.98 49.45,-7.18 16.32,-1.46 32.41,-1.68 48.01,-0.96 15.84,0.72 31.21,2.38 46.33,5.04 14.89,2.64 29.52,6.24 43.93,10.8 6,1.92 12,4.09 18.01,6.48 5.99,2.17 11.75,4.56 17.52,7.21 5.76,2.61 11.27,5.28 17.04,8.16 5.52,3.1 11.04,6 16.32,9.36 -7.44,-28.33 -12.96,-57.64 -16.32,-87.38 -3.36,-30.01 -4.3,-60.75 -3.36,-91.48 1.2,-30.94 4.31,-61.91 9.84,-92.63 5.52,-30.97 13.44,-61.45 23.28,-91.48 -0.69,0.02 -1.41,0.11 -2.12,0.13 16.95,-28 33.97,-55.9 53.45,-82.1 -61.9,-13.5 -126.12,-20.8 -192.06,-20.8 -497.63,0 -901.04,404.95 -901.04,904.49 0,499.54 403.41,904.49 901.04,904.49 497.63,0 901.03,-404.95 901.03,-904.49 0,-335.56 -182.16,-628.22 -452.51,-784.34 z m -148.39,713.31 c -2.17,24.99 -6.49,49.69 -12.97,74.2 -6.24,24.25 -14.4,48.25 -24.72,71.78 -10.09,23.28 -22.09,46.06 -36.01,68.17 -2.89,4.79 -6,9.6 -9.36,14.39 -3.12,4.81 -6.48,9.37 -9.84,13.93 -3.36,4.56 -6.72,9.12 -10.33,13.68 -3.36,4.33 -6.96,8.89 -10.56,13.21 4.83,-1.44 9.84,-3.12 14.65,-5.04 4.8,-1.68 9.6,-3.61 14.63,-5.55 4.81,-1.9 9.61,-4.08 14.41,-6.49 4.8,-2.15 9.6,-4.53 14.4,-6.93 30.49,-16.1 58.58,-36.48 83.54,-59.79 24.96,-23.28 47.28,-49.67 66.28,-78.24 18.93,-28.56 34.77,-59.55 47.02,-91.93 12.48,-32.41 21.12,-66.49 25.93,-101.06 -8.65,0.96 -17.02,1.69 -25.42,1.9 -8.43,0.26 -16.83,0 -24.99,-0.49 -8.4,-0.45 -16.57,-1.17 -24.73,-2.63 -8.16,-1.18 -16.32,-2.62 -24.25,-4.78 -6.47,-1.45 -12.71,-3.36 -18.95,-5.28 -6.01,-2.16 -12.28,-4.35 -18.25,-6.99 -6.25,-2.4 -12.24,-5.02 -18.25,-8.13 -5.99,-2.88 -11.75,-6.24 -17.76,-9.61 0.72,3.6 1.44,7.42 2.17,11.26 0.48,3.87 1.19,7.47 1.68,11.31 0.48,3.82 0.95,7.68 1.43,11.52 0.25,3.82 0.73,7.66 0.96,11.74 1.92,25.22 1.68,50.67 -0.71,75.85 z M 3960,4817.2 c -633.54,0 -1147.12,-515.56 -1147.12,-1151.52 0,-635.96 513.58,-1151.52 1147.12,-1151.52 633.53,0 1147.12,515.56 1147.12,1151.52 0,635.96 -513.59,1151.52 -1147.12,1151.52"
             style="fill:url(#radialGradient28);fill-opacity:1;fill-rule:nonzero;stroke:none"
             id="path30" />
        </g>
      </g>
      <path
         d="m 2943.15,1417.12 v -10.87 h -26.97 v -91.51 h -12.91 v 91.51 h -27.11 v 10.87 h 66.99"
         style="fill:#ffffff;fill-opacity:1;fill-rule:nonzero;stroke:none"
         id="path32" />
      <path
         d="m 3042.07,1417.12 v -64.78 c 0,-9.11 2.15,-15.86 6.46,-20.27 4.3,-4.4 10.28,-6.61 17.94,-6.61 7.57,0 13.51,2.21 17.82,6.61 4.3,4.41 6.46,11.16 6.46,20.27 v 64.78 h 12.91 v -64.63 c 0,-8.52 -1.66,-15.69 -4.97,-21.52 -3.31,-5.83 -7.78,-10.16 -13.41,-13 -5.63,-2.84 -11.95,-4.26 -18.95,-4.26 -7,0 -13.31,1.42 -18.94,4.26 -5.63,2.84 -10.08,7.17 -13.34,13 -3.27,5.83 -4.9,13 -4.9,21.52 v 64.63 h 12.92"
         style="fill:#ffffff;fill-opacity:1;fill-rule:nonzero;stroke:none"
         id="path34" />
      <path
         d="m 3317.75,1317.31 c -5.15,2.4 -9.2,5.73 -12.13,9.99 -2.93,4.25 -4.45,9.18 -4.54,14.76 h 13.76 c 0.48,-4.8 2.39,-8.84 5.75,-12.12 3.36,-3.28 8.26,-4.92 14.69,-4.92 6.15,0 11,1.59 14.55,4.78 3.55,3.17 5.32,7.26 5.32,12.26 0,3.92 -1.04,7.1 -3.12,9.54 -2.08,2.45 -4.69,4.32 -7.81,5.59 -3.12,1.27 -7.33,2.65 -12.63,4.11 -6.53,1.77 -11.76,3.53 -15.68,5.29 -3.93,1.76 -7.29,4.52 -10.08,8.29 -2.79,3.77 -4.18,8.84 -4.18,15.21 0,5.59 1.37,10.53 4.11,14.83 2.75,4.32 6.6,7.65 11.57,9.99 4.96,2.36 10.66,3.53 17.1,3.53 9.27,0 16.86,-2.4 22.78,-7.2 5.91,-4.79 9.24,-11.16 10.01,-19.09 h -14.2 c -0.47,3.92 -2.46,7.36 -5.96,10.35 -3.5,2.99 -8.14,4.48 -13.91,4.48 -5.39,0 -9.79,-1.44 -13.19,-4.33 -3.41,-2.89 -5.12,-6.93 -5.12,-12.12 0,-3.72 1.02,-6.76 3.06,-9.1 2.03,-2.36 4.54,-4.14 7.52,-5.36 2.98,-1.23 7.16,-2.63 12.56,-4.19 6.53,-1.87 11.78,-3.7 15.75,-5.51 3.97,-1.82 7.38,-4.6 10.22,-8.37 2.84,-3.77 4.26,-8.89 4.26,-15.35 0,-5 -1.28,-9.7 -3.84,-14.1 -2.55,-4.41 -6.33,-7.99 -11.35,-10.73 -5.01,-2.74 -10.93,-4.11 -17.74,-4.11 -6.53,0 -12.37,1.19 -17.53,3.6"
         style="fill:#ffffff;fill-opacity:1;fill-rule:nonzero;stroke:none"
         id="path36" />
      <path
         d="m 3470.54,1417.12 v -102.38 h -12.92 v 102.38 h 12.92"
         style="fill:#ffffff;fill-opacity:1;fill-rule:nonzero;stroke:none"
         id="path38" />
      <path
         d="m 3576.76,1317.31 c -5.15,2.4 -9.2,5.73 -12.14,9.99 -2.93,4.25 -4.44,9.18 -4.54,14.76 h 13.77 c 0.47,-4.8 2.39,-8.84 5.75,-12.12 3.35,-3.28 8.26,-4.92 14.69,-4.92 6.15,0 11,1.59 14.55,4.78 3.55,3.17 5.31,7.26 5.31,12.26 0,3.92 -1.03,7.1 -3.11,9.54 -2.08,2.45 -4.69,4.32 -7.81,5.59 -3.12,1.27 -7.34,2.65 -12.63,4.11 -6.53,1.77 -11.76,3.53 -15.68,5.29 -3.93,1.76 -7.29,4.52 -10.08,8.29 -2.79,3.77 -4.18,8.84 -4.18,15.21 0,5.59 1.37,10.53 4.11,14.83 2.74,4.32 6.6,7.65 11.56,9.99 4.97,2.36 10.68,3.53 17.11,3.53 9.27,0 16.87,-2.4 22.78,-7.2 5.91,-4.79 9.24,-11.16 10.01,-19.09 h -14.19 c -0.48,3.92 -2.47,7.36 -5.97,10.35 -3.5,2.99 -8.14,4.48 -13.91,4.48 -5.39,0 -9.79,-1.44 -13.2,-4.33 -3.41,-2.89 -5.11,-6.93 -5.11,-12.12 0,-3.72 1.02,-6.76 3.06,-9.1 2.03,-2.36 4.54,-4.14 7.52,-5.36 2.98,-1.23 7.17,-2.63 12.56,-4.19 6.53,-1.87 11.77,-3.7 15.75,-5.51 3.97,-1.82 7.38,-4.6 10.22,-8.37 2.84,-3.77 4.26,-8.89 4.26,-15.35 0,-5 -1.28,-9.7 -3.84,-14.1 -2.55,-4.41 -6.33,-7.99 -11.34,-10.73 -5.02,-2.74 -10.94,-4.11 -17.75,-4.11 -6.53,0 -12.37,1.19 -17.53,3.6"
         style="fill:#ffffff;fill-opacity:1;fill-rule:nonzero;stroke:none"
         id="path40" />
      <path
         d="m 3777.51,1417.12 v -10.87 h -26.97 v -91.51 h -12.91 v 91.51 h -27.11 v 10.87 h 66.99"
         style="fill:#ffffff;fill-opacity:1;fill-rule:nonzero;stroke:none"
         id="path42" />
      <path
         d="m 3876.72,1406.25 v -34.23 h 36.05 v -11.01 h -36.05 v -35.26 h 40.31 v -11.01 h -53.23 v 102.53 h 53.23 v -11.02 h -40.31"
         style="fill:#ffffff;fill-opacity:1;fill-rule:nonzero;stroke:none"
         id="path44" />
      <path
         d="m 4107.35,1416.39 v -101.65 h -12.92 v 75.79 l -32.63,-75.79 h -9.09 l -32.78,75.94 v -75.94 h -12.92 v 101.65 h 13.91 l 36.34,-84.03 36.32,84.03 h 13.77"
         style="fill:#ffffff;fill-opacity:1;fill-rule:nonzero;stroke:none"
         id="path46" />
      <path
         d="m 4254.38,1348.37 -17.88,51.71 -17.89,-51.71 z m 3.7,-10.87 h -43.15 l -7.95,-22.76 h -13.62 l 35.76,101.79 h 14.9 l 35.63,-101.79 h -13.62 l -7.95,22.76"
         style="fill:#ffffff;fill-opacity:1;fill-rule:nonzero;stroke:none"
         id="path48" />
      <path
         d="m 4533.97,1336.26 c 6.71,6.99 10.07,16.82 10.07,29.44 0,12.74 -3.38,22.68 -10.14,29.83 -6.77,7.15 -16.49,10.72 -29.16,10.72 h -17.88 v -80.5 h 17.88 c 12.77,0 22.52,3.51 29.23,10.51 z m -1.21,74.62 c 7.9,-4.17 13.96,-10.12 18.17,-17.85 4.21,-7.74 6.32,-16.85 6.32,-27.33 0,-10.47 -2.11,-19.56 -6.32,-27.24 -4.21,-7.69 -10.27,-13.57 -18.17,-17.63 -7.9,-4.06 -17.24,-6.09 -28.02,-6.09 h -30.8 v 102.38 h 30.8 c 10.78,0 20.12,-2.08 28.02,-6.24"
         style="fill:#ffffff;fill-opacity:1;fill-rule:nonzero;stroke:none"
         id="path50" />
      <path
         d="m 4657.59,1406.25 v -34.23 h 36.04 v -11.01 h -36.04 v -35.26 h 40.3 v -11.01 h -53.22 v 102.53 h 53.22 v -11.02 h -40.3"
         style="fill:#ffffff;fill-opacity:1;fill-rule:nonzero;stroke:none"
         id="path52" />
      <path
         d="m 4897.86,1392.96 c 4.36,7.98 10.29,14.22 17.81,18.72 7.53,4.5 15.88,6.76 25.05,6.76 10.79,0 20.21,-2.7 28.25,-8.08 8.04,-5.39 13.91,-13.02 17.6,-22.92 h -15.47 c -2.75,6.17 -6.7,10.92 -11.85,14.25 -5.16,3.33 -11.33,5 -18.53,5 -6.9,0 -13.1,-1.67 -18.58,-5 -5.49,-3.33 -9.8,-8.05 -12.92,-14.17 -3.13,-6.12 -4.68,-13.29 -4.68,-21.52 0,-8.13 1.55,-15.26 4.68,-21.37 3.12,-6.12 7.43,-10.85 12.92,-14.18 5.48,-3.33 11.68,-4.99 18.58,-4.99 7.2,0 13.37,1.64 18.53,4.92 5.15,3.28 9.1,8.01 11.85,14.17 h 15.47 c -3.69,-9.78 -9.56,-17.35 -17.6,-22.68 -8.04,-5.35 -17.46,-8.01 -28.25,-8.01 -9.17,0 -17.52,2.23 -25.05,6.68 -7.52,4.45 -13.45,10.65 -17.81,18.58 -4.34,7.93 -6.52,16.9 -6.52,26.88 0,9.99 2.18,18.97 6.52,26.96"
         style="fill:#ffffff;fill-opacity:1;fill-rule:nonzero;stroke:none"
         id="path54" />
      <path
         d="m 5088.75,1417.12 v -64.78 c 0,-9.11 2.16,-15.86 6.46,-20.27 4.31,-4.4 10.29,-6.61 17.95,-6.61 7.57,0 13.51,2.21 17.82,6.61 4.3,4.41 6.45,11.16 6.45,20.27 v 64.78 h 12.92 v -64.63 c 0,-8.52 -1.66,-15.69 -4.97,-21.52 -3.31,-5.83 -7.78,-10.16 -13.41,-13 -5.63,-2.84 -11.94,-4.26 -18.94,-4.26 -7,0 -13.32,1.42 -18.96,4.26 -5.62,2.84 -10.07,7.17 -13.34,13 -3.26,5.83 -4.89,13 -4.89,21.52 v 64.63 h 12.91"
         style="fill:#ffffff;fill-opacity:1;fill-rule:nonzero;stroke:none"
         id="path56" />
      <path
         d="m 5255.23,1417.12 v -102.38 h -12.92 v 102.38 h 12.92"
         style="fill:#ffffff;fill-opacity:1;fill-rule:nonzero;stroke:none"
         id="path58" />
      <path
         d="m 5407.66,1336.26 c 6.7,6.99 10.06,16.82 10.06,29.44 0,12.74 -3.37,22.68 -10.14,29.83 -6.77,7.15 -16.49,10.72 -29.16,10.72 h -17.88 v -80.5 h 17.88 c 12.77,0 22.52,3.51 29.24,10.51 z m -1.22,74.62 c 7.91,-4.17 13.96,-10.12 18.17,-17.85 4.21,-7.74 6.32,-16.85 6.32,-27.33 0,-10.47 -2.11,-19.56 -6.32,-27.24 -4.21,-7.69 -10.26,-13.57 -18.17,-17.63 -7.9,-4.06 -17.24,-6.09 -28.02,-6.09 h -30.8 v 102.38 h 30.8 c 10.78,0 20.12,-2.08 28.02,-6.24"
         style="fill:#ffffff;fill-opacity:1;fill-rule:nonzero;stroke:none"
         id="path60" />
      <path
         d="m 5573.13,1348.37 -17.88,51.71 -17.89,-51.71 z m 3.7,-10.87 h -43.15 l -7.95,-22.76 h -13.62 l 35.76,101.79 h 14.9 l 35.63,-101.79 h -13.63 l -7.94,22.76"
         style="fill:#ffffff;fill-opacity:1;fill-rule:nonzero;stroke:none"
         id="path62" />
      <path
         d="m 5744.44,1336.26 c 6.71,6.99 10.07,16.82 10.07,29.44 0,12.74 -3.38,22.68 -10.15,29.83 -6.76,7.15 -16.48,10.72 -29.16,10.72 h -17.88 v -80.5 h 17.88 c 12.78,0 22.52,3.51 29.24,10.51 z m -1.21,74.62 c 7.9,-4.17 13.96,-10.12 18.17,-17.85 4.2,-7.74 6.31,-16.85 6.31,-27.33 0,-10.47 -2.11,-19.56 -6.31,-27.24 -4.21,-7.69 -10.27,-13.57 -18.17,-17.63 -7.9,-4.06 -17.24,-6.09 -28.03,-6.09 h -30.8 v 102.38 h 30.8 c 10.79,0 20.13,-2.08 28.03,-6.24"
         style="fill:#ffffff;fill-opacity:1;fill-rule:nonzero;stroke:none"
         id="path64" />
      <path
         d="m 5918.65,1330.3 c 5.53,3.33 9.88,8.09 13.06,14.25 3.16,6.17 4.75,13.32 4.75,21.45 0,8.23 -1.59,15.4 -4.75,21.52 -3.18,6.12 -7.5,10.84 -12.99,14.17 -5.49,3.33 -11.74,5 -18.73,5 -7.01,0 -13.25,-1.67 -18.74,-5 -5.49,-3.33 -9.82,-8.05 -12.99,-14.17 -3.16,-6.12 -4.74,-13.29 -4.74,-21.52 0,-8.13 1.58,-15.28 4.74,-21.45 3.17,-6.16 7.53,-10.92 13.06,-14.25 5.53,-3.33 11.76,-4.99 18.67,-4.99 6.9,0 13.12,1.66 18.66,4.99 z m -43.79,-9.91 c -7.57,4.45 -13.55,10.68 -17.95,18.65 -4.4,7.99 -6.6,16.98 -6.6,26.96 0,9.99 2.2,18.97 6.6,26.96 4.4,7.98 10.38,14.19 17.95,18.65 7.57,4.46 15.95,6.68 25.13,6.68 9.27,0 17.69,-2.22 25.25,-6.68 7.57,-4.46 13.54,-10.65 17.89,-18.58 4.35,-7.93 6.53,-16.94 6.53,-27.03 0,-10.08 -2.18,-19.09 -6.53,-27.02 -4.35,-7.93 -10.32,-14.14 -17.89,-18.59 -7.56,-4.45 -15.98,-6.68 -25.25,-6.68 -9.18,0 -17.56,2.23 -25.13,6.68"
         style="fill:#ffffff;fill-opacity:1;fill-rule:nonzero;stroke:none"
         id="path66" />
      <path
         d="m 6034.95,1316.5 c -1.7,1.76 -2.56,3.91 -2.56,6.46 0,2.55 0.86,4.71 2.56,6.47 1.7,1.76 3.78,2.64 6.25,2.64 2.36,0 4.38,-0.88 6.03,-2.64 1.66,-1.76 2.48,-3.92 2.48,-6.47 0,-2.55 -0.82,-4.7 -2.48,-6.46 -1.65,-1.76 -3.67,-2.64 -6.03,-2.64 -2.47,0 -4.55,0.88 -6.25,2.64"
         style="fill:#ffffff;fill-opacity:1;fill-rule:nonzero;stroke:none"
         id="path68" />
      <path
         d="m 2406.58,1673.83 h -352.9 V 2235.7 H 1870.3 v -703.67 h 536.28 v 141.8"
         style="fill:#ffffff;fill-opacity:1;fill-rule:nonzero;stroke:none"
         id="path70" />
      <path
         d="m 2664.58,1765.52 -29.85,-117.28 -25.59,113.02 -82.09,303.86 h -199.37 l 159.92,-399.82 61.84,-145 -13.86,-33.04 c -7.83,-19.9 -18.31,-33.41 -31.45,-40.52 -13.17,-7.1 -30.04,-10.66 -50.65,-10.66 -22.04,0 -40.16,1.97 -54.37,5.86 -14.23,3.92 -27.72,10.49 -40.52,19.72 l -36.25,-122.61 c 18.48,-11.35 40.15,-20.25 65.04,-26.65 24.87,-6.39 52.24,-9.6 82.09,-9.6 44.78,0 83.17,7.47 115.15,22.4 31.99,14.92 59.71,39.1 83.16,72.5 23.46,33.41 45.13,78.19 65.04,134.33 l 194.04,533.09 h -180.18 l -82.1,-299.6"
         style="fill:#ffffff;fill-opacity:1;fill-rule:nonzero;stroke:none"
         id="path72" />
      <path
         d="m 3752.06,2054.99 c -27.03,13.86 -58.29,20.78 -93.82,20.78 -24.9,0 -49.05,-3.9 -72.5,-11.72 -23.46,-7.83 -44.25,-19.56 -62.38,-35.18 -18.12,-15.65 -32.88,-35.19 -44.24,-58.64 -14.22,34.81 -35.9,61.12 -65.04,78.89 -29.15,17.77 -63.62,26.65 -103.42,26.65 -40.51,0 -76.23,-9.59 -107.14,-28.78 -30.92,-19.19 -54.91,-47.62 -71.97,-85.29 l -5.33,103.42 h -162.06 v -533.09 h 181.25 v 281.47 c 0,29.14 4.26,52.77 12.79,70.9 8.53,18.12 20.08,31.45 34.66,39.99 14.56,8.52 30.02,12.79 46.37,12.79 21.33,0 38.73,-6.77 52.24,-20.26 13.5,-13.51 20.26,-37.32 20.26,-71.43 v -313.46 h 181.25 v 284.67 c 0,27 3.9,49.39 11.73,67.17 7.81,17.75 19.01,31.08 33.59,39.98 14.56,8.88 30.73,13.33 48.5,13.33 22.02,0 39.62,-6.77 52.77,-20.26 13.15,-13.51 19.73,-37.32 19.73,-71.43 v -313.46 h 181.25 v 355.03 c 0,41.94 -8,76.94 -23.99,105.02 -15.99,28.08 -37.49,49.04 -64.5,62.91"
         style="fill:#ffffff;fill-opacity:1;fill-rule:nonzero;stroke:none"
         id="path74" />
      <path
         d="m 4293.66,1689.29 c -17.77,-23.11 -42.29,-34.65 -73.56,-34.65 -19.91,0 -37.32,5.5 -52.25,16.52 -14.92,11.02 -26.31,27.19 -34.12,48.52 -7.82,21.32 -11.72,47.25 -11.72,77.83 0,30.55 3.9,56.5 11.72,77.82 7.81,21.33 19.01,37.85 33.58,49.58 14.56,11.73 32.16,17.6 52.79,17.6 31.27,0 55.79,-11.56 73.56,-34.66 17.76,-23.1 26.65,-59.53 26.65,-109.27 0,-49.77 -8.89,-86.2 -26.65,-109.29 z m 106.09,353.44 c -32.36,22.02 -69.14,33.04 -110.36,33.04 -51.89,0 -93.12,-14.38 -123.67,-43.17 -18.29,-17.23 -32.8,-37.24 -43.71,-59.93 v 318.47 h -181.24 v -759.11 h 158.85 l 5.85,117.7 c 5.31,-14.26 11.84,-27.76 19.73,-40.4 17.07,-27.38 38.92,-48.88 65.57,-64.5 26.66,-15.63 57.39,-23.46 92.23,-23.46 44.06,0 82.44,10.83 115.14,32.52 32.69,21.67 58.28,53.12 76.77,94.35 18.47,41.21 27.72,90.63 27.72,148.21 0,58.98 -9.07,109.27 -27.19,150.86 -18.13,41.58 -43.36,73.37 -75.69,95.42"
         style="fill:#ffffff;fill-opacity:1;fill-rule:nonzero;stroke:none"
         id="path76" />
      <path
         d="m 4753.18,2279.95 c -17.06,13.86 -43.71,20.78 -79.96,20.78 -36.97,0 -63.81,-6.92 -80.5,-20.78 -16.7,-13.86 -25.05,-36.08 -25.05,-66.64 0,-29.85 8.35,-51.71 25.05,-65.56 16.69,-13.86 43.53,-20.8 80.5,-20.8 36.25,0 62.9,6.94 79.96,20.8 17.06,13.85 25.59,35.71 25.59,65.56 0,30.56 -8.53,52.78 -25.59,66.64"
         style="fill:#daff03;fill-opacity:1;fill-rule:nonzero;stroke:none"
         id="path78" />
      <path
         d="m 4582.6,1532.03 h 181.25 v 533.09 H 4582.6 v -533.09"
         style="fill:#ffffff;fill-opacity:1;fill-rule:nonzero;stroke:none"
         id="path80" />
      <path
         d="M 5451.5,2065.12 H 5250 l -202.57,-223.99 v 450.01 h -181.25 v -759.11 h 181.25 v 122.91 l 85.78,95.98 129.58,-218.89 h 200.44 l -208.06,323.65 196.33,209.44"
         style="fill:#ffffff;fill-opacity:1;fill-rule:nonzero;stroke:none"
         id="path82" />
      <path
         d="m 5788.4,1688.76 c -4.98,-11.38 -11.73,-20.79 -20.26,-28.25 -8.52,-7.47 -18.31,-12.98 -29.31,-16.53 -11.04,-3.57 -22.58,-5.33 -34.65,-5.33 -15.65,0 -29.16,3.9 -40.52,11.72 -11.38,7.82 -17.06,19.54 -17.06,35.19 0,16.35 5.15,28.6 15.46,36.78 10.29,8.17 26.12,14.4 47.44,18.66 l 86.37,18 v -29.73 c 0,-15.64 -2.5,-29.15 -7.47,-40.51 z m 224.96,-52.25 c -24.88,0 -37.32,13.86 -37.32,41.59 v 195.1 c 0,44.07 -9.77,81.21 -29.31,111.42 -19.56,30.21 -47.63,52.94 -84.23,68.23 -36.61,15.28 -80.86,22.92 -132.73,22.92 -77.49,0 -137.54,-15.29 -180.19,-45.84 -42.65,-30.56 -68.95,-71.43 -78.9,-122.6 l 153.53,-36.25 c 6.39,29.85 17.95,50.64 34.66,62.37 16.69,11.72 36.77,17.59 60.23,17.59 23.46,0 42.11,-7.3 55.98,-21.86 13.85,-14.58 20.79,-34.31 20.79,-59.17 v -15.24 l -184.45,-38.07 c -49.76,-9.96 -86.2,-27.56 -109.28,-52.77 -23.11,-25.25 -34.65,-57.04 -34.65,-95.43 0,-31.99 7.28,-58.82 21.86,-80.49 14.56,-21.69 35.35,-38.22 62.36,-49.58 27.01,-11.36 58.64,-17.06 94.89,-17.06 31.27,0 61.31,4.98 90.09,14.93 28.79,9.94 52.24,25.21 70.37,45.84 5.2,5.91 9.56,12.27 13.27,18.99 2.92,-9.08 6.82,-17.39 11.79,-24.85 12.07,-18.12 28.78,-31.64 50.11,-40.52 21.31,-8.87 45.84,-13.33 73.56,-13.33 30.56,0 56.5,4.98 77.83,14.93 l 10.67,103.42 c -7.84,-2.85 -18.13,-4.27 -30.93,-4.27"
         style="fill:#ffffff;fill-opacity:1;fill-rule:nonzero;stroke:none"
         id="path84" />
    </g>
  </g>
</svg>
