<svg width="30" height="40" viewBox="0 0 30 40" fill="none" xmlns="http://www.w3.org/2000/svg">
<path d="M15.0074 0C6.7114 0 0 6.84249 0 15.3119C0 18.6614 1.07196 21.9151 3.02945 24.5947L13.8889 39.4281C14.3549 40.0501 15.2405 40.1937 15.8464 39.7152C15.9396 39.6195 16.0328 39.5238 16.126 39.4281L26.9854 24.5947C31.9724 17.8001 30.6208 8.18228 24.0492 3.11022C21.3926 1.10054 18.2233 0 15.0074 0ZM15.0074 23.6377C10.5798 23.6377 6.99104 19.9533 6.99104 15.4076C6.99104 10.8619 10.5798 7.17744 15.0074 7.17744C19.4351 7.17744 22.9772 10.814 23.0238 15.3597C23.0238 19.9054 19.4351 23.5899 15.0074 23.5899V23.6377Z" fill="#5ECCD3"/>
</svg>
