<svg width="34" height="34" viewBox="0 0 34 34" fill="none" xmlns="http://www.w3.org/2000/svg">
<rect width="34" height="34" rx="10" fill="#30DBE6" fill-opacity="0.2"/>
<path d="M21.2118 17.1592C21.1412 17.0516 21.0647 16.9497 20.9824 16.8478C20.8647 16.6892 20.7235 16.5363 20.5353 16.3552C20.3647 16.191 20.1882 16.0437 20 15.9135C19.1412 15.2794 18.0941 14.9453 17 14.9453C15.8941 14.9453 14.8471 15.2907 13.9941 15.9135C13.6412 16.1683 13.3235 16.4741 13.0471 16.8194C12.9588 16.927 12.8765 17.0403 12.7941 17.1592C12.2824 17.9235 12 18.8351 12 19.758V20.0411V21.7397V22.0228C12 22.4928 12.3941 22.8722 12.8824 22.8722H21.1176C21.6059 22.8722 22 22.4928 22 22.0228V21.7397V19.758C22 18.8238 21.7176 17.9122 21.2118 17.1592Z" fill="#10405B" fill-opacity="0.5"/>
<path d="M19.6471 11.5479C19.6471 12.952 18.4589 14.0957 17.0001 14.0957C15.5413 14.0957 14.353 12.952 14.353 11.5479C14.353 10.138 15.5413 9 17.0001 9C18.4589 9 19.6471 10.138 19.6471 11.5479Z" fill="#10405B" fill-opacity="0.5"/>
</svg>
