<svg width="80" height="62" viewBox="0 0 80 62" fill="none" xmlns="http://www.w3.org/2000/svg">
<path fill-rule="evenodd" clip-rule="evenodd" d="M4.88711e-05 26.6L5.04185e-05 8.89999C5.08469e-05 3.99999 4.00005 -6.62665e-06 8.90005 -6.19827e-06L26.6001 -4.65089e-06C31.5001 -4.22252e-06 35.5001 4 35.5001 8.9L35.5 26.6C35.5 46.2 19.6 62 0.100044 62L0.100045 49.5C9.20004 48.9 17.0001 43.3 20.7001 35.4L8.90005 35.4C4.00005 35.4 4.84428e-05 31.5 4.88711e-05 26.6ZM53.2001 -2.32545e-06L70.9001 -7.78063e-07C75.8001 -3.49691e-07 79.8001 4 79.8001 8.9L79.8001 26.6C79.8001 46.2 63.9 62 44.4 62L44.4 49.5C53.5 48.9 61.3001 43.3 65.0001 35.4L53.2001 35.4C48.3001 35.4 44.3001 31.4 44.3001 26.5L44.3001 8.8C44.3001 4 48.3001 -2.75382e-06 53.2001 -2.32545e-06Z" fill="#10405B" fill-opacity="0.1"/>
</svg>
