<svg width="21" height="21" viewBox="0 0 21 21" fill="none" xmlns="http://www.w3.org/2000/svg">
<g clip-path="url(#clip0_50_4405)">
<path d="M5.99375 3.36865C4.55 3.36865 3.36875 4.5499 3.36875 5.99365C3.36875 7.4374 4.55 8.61866 5.99375 8.61866C7.4375 8.61866 8.61875 7.4374 8.61875 5.99365C8.61875 4.5499 7.4375 3.36865 5.99375 3.36865ZM6.86875 6.01553C6.86875 6.49678 6.475 6.89053 5.99375 6.89053C5.5125 6.89053 5.11875 6.49678 5.11875 6.01553C5.11875 5.7749 5.20625 5.55615 5.38125 5.40303C5.53438 5.2499 5.73125 5.1624 5.95 5.14053H6.01563C6.475 5.14053 6.86875 5.53428 6.86875 6.01553Z" fill="#10405B"/>
<path d="M20.6281 15.9038L14.4375 9.71316C15.05 7.87566 14.9188 5.92879 14.0875 4.17879C13.2125 2.40691 11.725 1.07254 9.84375 0.416291C7.175 -0.524334 4.15625 0.175666 2.16562 2.16629C-0.721875 5.05379 -0.721875 9.75691 2.16562 12.6444C4.13438 14.6132 7.0875 15.3132 9.7125 14.4382L10.5875 15.3132C10.85 15.5757 11.2 15.7288 11.55 15.7069H12.4688V16.4507C12.4688 17.3038 13.1469 17.9819 14 17.9819H14.7438V18.9007C14.7438 19.2507 14.875 19.6007 15.1375 19.8632L15.9031 20.6288C16.1437 20.8694 16.4719 21.0007 16.8219 21.0007H19.8406C20.475 21.0007 21 20.4757 21 19.8413V16.8225C21 16.4944 20.8688 16.1444 20.6281 15.9038ZM15.4437 16.21H14.2406V15.0069C14.2406 14.4163 13.7594 13.935 13.1687 13.935H11.725L10.5656 12.7757C10.3031 12.5132 9.93125 12.4475 9.60313 12.5788C8.20312 13.1694 6.67188 13.1694 5.27187 12.6007C3.87188 12.0319 2.77813 10.96 2.1875 9.56004C1.29062 7.48191 1.77188 5.03191 3.4125 3.41316L3.43438 3.39129C4.48438 2.31942 5.90625 1.75067 7.39375 1.75067C8.90312 1.75067 10.325 2.34129 11.3969 3.41316C13.0375 5.05379 13.5187 7.48191 12.6 9.62566C12.4688 9.95379 12.5344 10.3257 12.7969 10.5882L19.25 17.0194V19.2507H17.0188L16.5156 18.7475V17.2819C16.5156 16.6913 16.0344 16.21 15.4437 16.21Z" fill="#10405B"/>
</g>
<defs>
<clipPath id="clip0_50_4405">
<rect width="21" height="21" fill="white"/>
</clipPath>
</defs>
</svg>
