<svg width="20" height="16" viewBox="0 0 20 16" fill="none" xmlns="http://www.w3.org/2000/svg">
<path d="M9.99842 0.446489C9.40452 1.04039 9.40452 2.0073 9.99575 2.59857L13.7944 6.47643L1.52385 6.47643C0.683461 6.47643 -3.11393e-07 7.15989 -2.81791e-07 8.00028C-2.52188e-07 8.84066 0.683461 9.52412 1.52385 9.52412L13.7951 9.52412L9.99802 13.3993C9.40372 13.9936 9.40372 14.9601 9.99802 15.5544C10.5923 16.1487 11.5592 16.1483 12.1531 15.5544C12.1539 15.5537 12.1543 15.5529 12.1551 15.5525L18.6955 8.92901C18.9481 8.67338 19.0741 8.3385 19.0741 8.00367C19.0741 7.66692 18.9465 7.33052 18.6916 7.07565L12.1535 0.446489C11.8659 0.158488 11.483 -6.22865e-07 11.0762 -6.00797e-07C10.6693 -5.78729e-07 10.2865 0.158488 9.99842 0.446489Z" fill="#10405B"/>
</svg>
