<svg width="21" height="24" viewBox="0 0 21 24" fill="none" xmlns="http://www.w3.org/2000/svg">
<path d="M16.1249 0H10.1249C9.03093 0 7.98172 0.434594 7.20814 1.20818C6.43456 1.98176 5.99997 3.03096 5.99997 4.12497V6.11246C4.72944 6.3718 3.58754 7.06215 2.76752 8.06668C1.9475 9.0712 1.49974 10.3282 1.5 11.6249V14.2499H12.7499V11.6249C12.7502 10.3282 12.3024 9.0712 11.4824 8.06668C10.6624 7.06215 9.52048 6.3718 8.24995 6.11246V4.12497C8.24995 3.62769 8.44749 3.15078 8.79912 2.79915C9.15075 2.44753 9.62766 2.24998 10.1249 2.24998H16.1249C16.6222 2.24998 17.0991 2.44753 17.4507 2.79915C17.8023 3.15078 17.9999 3.62769 17.9999 4.12497V23.9998H20.2499V4.12497C20.2499 3.03096 19.8153 1.98176 19.0417 1.20818C18.2681 0.434594 17.2189 0 16.1249 0ZM10.4999 11.6249V11.9999H3.74998V11.6249C3.74998 10.7298 4.10556 9.87138 4.73849 9.23845C5.37142 8.60552 6.22986 8.24994 7.12496 8.24994C8.02006 8.24994 8.8785 8.60552 9.51143 9.23845C10.1444 9.87138 10.4999 10.7298 10.4999 11.6249Z" fill="#10405B"/>
<path d="M4.12499 19.4999C4.74631 19.4999 5.24998 18.9962 5.24998 18.3749C5.24998 17.7536 4.74631 17.2499 4.12499 17.2499C3.50368 17.2499 3 17.7536 3 18.3749C3 18.9962 3.50368 19.4999 4.12499 19.4999Z" fill="#10405B"/>
<path d="M10.125 19.4999C10.7463 19.4999 11.25 18.9962 11.25 18.3749C11.25 17.7536 10.7463 17.2499 10.125 17.2499C9.50368 17.2499 9 17.7536 9 18.3749C9 18.9962 9.50368 19.4999 10.125 19.4999Z" fill="#10405B"/>
<path d="M1.12499 24C1.74631 24 2.24998 23.4963 2.24998 22.875C2.24998 22.2537 1.74631 21.75 1.12499 21.75C0.503676 21.75 0 22.2537 0 22.875C0 23.4963 0.503676 24 1.12499 24Z" fill="#10405B"/>
<path d="M7.12499 24C7.74631 24 8.24998 23.4963 8.24998 22.875C8.24998 22.2537 7.74631 21.75 7.12499 21.75C6.50368 21.75 6 22.2537 6 22.875C6 23.4963 6.50368 24 7.12499 24Z" fill="#10405B"/>
<path d="M13.125 24C13.7463 24 14.25 23.4963 14.25 22.875C14.25 22.2537 13.7463 21.75 13.125 21.75C12.5037 21.75 12 22.2537 12 22.875C12 23.4963 12.5037 24 13.125 24Z" fill="#10405B"/>
</svg>
