<svg width="24" height="24" viewBox="0 0 24 24" fill="none" xmlns="http://www.w3.org/2000/svg">
<path d="M3.42327 12.515V17.9834C3.42327 18.6712 3.69651 19.3308 4.18286 19.8172C4.66922 20.3035 5.32885 20.5768 6.01666 20.5768H11.485L9.63259 22.4292L11.2034 24.0001L14.9527 20.2508C15.1609 20.0424 15.2778 19.7599 15.2778 19.4653C15.2778 19.1708 15.1609 18.8883 14.9527 18.6799L11.2034 14.9306L9.63259 16.5015L11.485 18.3539H6.01666C5.91841 18.3539 5.82417 18.3148 5.75469 18.2454C5.68521 18.1759 5.64618 18.0816 5.64618 17.9834V12.515L7.4986 14.3675L9.06946 12.7966L5.32015 9.04731C5.11176 8.83917 4.82926 8.72226 4.53473 8.72226C4.24019 8.72226 3.9577 8.83917 3.7493 9.04731L0 12.7966L1.57085 14.3675L3.42327 12.515Z" fill="#10405B"/>
<path d="M23.4295 8.7212V7.60975L22.5552 6.94288L14.775 1.01513L13.4264 0L12.0779 1.02624L5.47583 6.05742L7.0615 7.64309L13.4264 2.79345L21.2066 8.7212V17.9833C21.2066 18.0816 21.1676 18.1758 21.0981 18.2453C21.0286 18.3148 20.9344 18.3538 20.8361 18.3538H17.5017V20.5767H20.8361C21.5239 20.5767 22.1836 20.3035 22.6699 19.8171C23.1563 19.3308 23.4295 18.6711 23.4295 17.9833V8.7212Z" fill="#10405B"/>
</svg>
