<svg width="19" height="16" viewBox="0 0 19 16" fill="none" xmlns="http://www.w3.org/2000/svg">
<g clip-path="url(#clip0_40_392)">
<path d="M0 14.2183C1.71851 15.3473 3.7603 16.0059 5.94955 16.0059C12.0919 16.0059 17.0773 10.8431 17.0773 4.46895C17.0773 4.31018 17.0716 4.15141 17.066 3.99265C17.2872 3.81036 18.6654 2.66961 19 1.93458C19 1.93458 17.8827 2.41676 16.7937 2.52848H16.7881C16.7881 2.52848 16.7881 2.52848 16.7937 2.5226C16.8958 2.45204 18.3024 1.45829 18.4952 0.276369C18.4952 0.276369 17.7069 0.711503 16.6009 1.09372C16.4194 1.1584 16.2266 1.2172 16.0281 1.276C15.3078 0.493936 14.2982 0 13.1696 0C11.0143 0 9.26746 1.8111 9.26746 4.04557C9.26746 4.3631 9.30149 4.66887 9.36955 4.96288C9.06896 4.95112 4.4806 4.68063 1.35552 0.764425C1.35552 0.764425 -0.510448 3.40463 2.46716 6.12128C2.46716 6.12128 1.5597 6.086 0.782687 5.59794C0.782687 5.59794 0.493433 8.79677 3.86806 9.61411C3.86806 9.61411 3.20448 9.87284 2.14388 9.69055C2.14388 9.69055 2.73373 12.2778 5.73403 12.5189C5.73403 12.5189 3.36328 14.7358 0 14.2183Z" fill="white"/>
</g>
<defs>
<clipPath id="clip0_40_392">
<rect width="19" height="16" fill="white"/>
</clipPath>
</defs>
</svg>
