<svg width="19" height="25" viewBox="0 0 19 25" fill="none" xmlns="http://www.w3.org/2000/svg">
<path d="M9.50471 0C4.25056 0 0 4.27656 0 9.56992C0 11.6633 0.678908 13.697 1.91865 15.3717L8.79629 24.6426C9.09146 25.0313 9.6523 25.121 10.036 24.822C10.0951 24.7622 10.1541 24.7024 10.2131 24.6426L17.0908 15.3717C20.2492 11.125 19.3932 5.11393 15.2312 1.94389C13.5486 0.687838 11.5414 0 9.50471 0ZM9.50471 14.7736C6.70053 14.7736 4.42766 12.4708 4.42766 9.62974C4.42766 6.78866 6.70053 4.4859 9.50471 4.4859C12.3089 4.4859 14.5522 6.75876 14.5818 9.59983C14.5818 12.4409 12.3089 14.7437 9.50471 14.7437V14.7736Z" fill="#EED96C"/>
</svg>
