<svg width="58" height="61" viewBox="0 0 58 61" fill="none" xmlns="http://www.w3.org/2000/svg">
<path d="M42.7935 47.6902C43.3149 47.6902 43.8363 47.4812 44.2341 47.064C45.0303 46.2295 45.0303 44.8764 44.2341 44.0419L36.5697 36.0027C38.6649 33.52 39.9405 30.26 39.9405 26.6917C39.9405 18.9357 33.9249 12.626 26.5299 12.626C19.1355 12.626 13.1199 18.9357 13.1199 26.6917C13.1199 34.4477 19.1355 40.7574 26.5299 40.7574C29.0499 40.7574 31.4097 40.0236 33.4257 38.7498L41.3517 47.064C41.7501 47.4812 42.2715 47.6902 42.7935 47.6902ZM26.5305 36.4829C21.3831 36.4829 17.1957 32.0908 17.1957 26.6917C17.1957 21.2926 21.3831 16.9004 26.5305 16.9004C31.6779 16.9004 35.8653 21.2926 35.8653 26.6917C35.8653 32.0908 31.6779 36.4829 26.5305 36.4829Z" fill="white"/>
<path d="M8.35059 0C3.85659 0 0.200195 3.83521 0.200195 8.54899V20.6254C0.200195 21.8061 1.11219 22.7627 2.23779 22.7627C3.36279 22.7627 4.27539 21.8061 4.27539 20.6254V8.54899C4.27539 6.1921 6.10359 4.2745 8.35059 4.2745H19.879C21.0046 4.2745 21.9166 3.31789 21.9166 2.13725C21.9166 0.956601 21.0046 0 19.879 0H8.35059V0Z" fill="white"/>
<path d="M49.6496 0H38.1206C36.9956 0 36.083 0.956601 36.083 2.13725C36.083 3.31789 36.9956 4.2745 38.1206 4.2745H49.6496C51.8966 4.2745 53.7248 6.1921 53.7248 8.54899V20.6254C53.7248 21.8061 54.6368 22.7627 55.7624 22.7627C56.888 22.7627 57.8 21.8061 57.8 20.6254V8.54899C57.8 3.83521 54.1436 0 49.6496 0Z" fill="white"/>
<path d="M55.7624 37.9509C54.6368 37.9509 53.7248 38.9075 53.7248 40.0882V52.1646C53.7248 54.5215 51.8966 56.4391 49.6496 56.4391H38.1206C36.9956 56.4391 36.083 57.3957 36.083 58.5764C36.083 59.757 36.9956 60.7136 38.1206 60.7136H49.6496C54.1436 60.7136 57.8 56.8784 57.8 52.1646V40.0882C57.8 38.9075 56.888 37.9509 55.7624 37.9509Z" fill="white"/>
<path d="M19.879 56.4391H8.3506C6.1036 56.4391 4.2754 54.5215 4.2754 52.1646V40.0882C4.2754 38.9075 3.3628 37.9509 2.2378 37.9509C1.1122 37.9509 0.200195 38.9075 0.200195 40.0882V52.1646C0.200195 56.879 3.8566 60.7136 8.3506 60.7136H19.879C21.0046 60.7136 21.9166 59.757 21.9166 58.5764C21.9166 57.3957 21.0046 56.4391 19.879 56.4391Z" fill="white"/>
</svg>
